<?xml version="1.0" encoding="UTF-8" standalone="no"?>
<!-- Created with Inkscape (http://www.inkscape.org/) -->

<svg
   width="4.7493548mm"
   height="4.7493548mm"
   viewBox="0 0 4.7493548 4.7493548"
   version="1.1"
   id="svg1"
   xml:space="preserve"
   sodipodi:docname="icon.svg"
   inkscape:version="1.4.2 (f4327f4, 2025-05-13)"
   xmlns:inkscape="http://www.inkscape.org/namespaces/inkscape"
   xmlns:sodipodi="http://sodipodi.sourceforge.net/DTD/sodipodi-0.dtd"
   xmlns="http://www.w3.org/2000/svg"
   xmlns:svg="http://www.w3.org/2000/svg"><sodipodi:namedview
     id="namedview1"
     pagecolor="#ffffff"
     bordercolor="#000000"
     borderopacity="0.25"
     inkscape:showpageshadow="2"
     inkscape:pageopacity="0.0"
     inkscape:pagecheckerboard="0"
     inkscape:deskcolor="#d1d1d1"
     inkscape:document-units="mm"
     inkscape:zoom="34.862308"
     inkscape:cx="4.2739568"
     inkscape:cy="9.422784"
     inkscape:window-width="1920"
     inkscape:window-height="1129"
     inkscape:window-x="-8"
     inkscape:window-y="-8"
     inkscape:window-maximized="1"
     inkscape:current-layer="g5" /><defs
     id="defs1" /><g
     id="layer1"
     transform="translate(-77.335846,-73.495323)"><g
       id="g5"
       transform="matrix(0.1461473,0,0,0.1461473,72.95726,27.90942)"><path
         id="rect4"
         style="fill:#f9f9f9;stroke:#f9f9f9;stroke-width:0.169223"
         d="m 46.208632,312.00213 c 8.954799,0 16.163897,7.20909 16.163897,16.16389 0,8.9548 -7.209098,16.1639 -16.163897,16.1639 -8.954798,0 -16.163895,-7.2091 -16.163895,-16.1639 0,-8.9548 7.209097,-16.16389 16.163895,-16.16389 z" /><path
         fill="none"
         stroke="currentColor"
         stroke-linecap="round"
         stroke-linejoin="round"
         d="m 46.305182,322.47279 c 1.634724,0 2.91425,-0.008 2.91425,-0.008 0,0 1.312265,-2.25822 4.47357,-4.40879 0,0 -0.66684,6.25833 1.484219,12.00081 0,0 -5.58927,4.21806 -8.944452,8.21866 -3.355178,-4.00011 -8.992725,-8.21866 -8.992725,-8.21866 2.15106,-5.74248 1.484219,-12.00081 1.484219,-12.00081 3.161305,2.15057 4.473572,4.40879 4.473572,4.40879 0,0 1.520906,0.008 3.155624,0.008"
         stroke-width="0.487104"
         id="path1"
         style="fill:#006aff;fill-opacity:1;stroke:none;stroke-opacity:1" /></g></g></svg>
