<?xml version="1.0" encoding="UTF-8" standalone="no"?>
<!-- Created with Inkscape (http://www.inkscape.org/) -->

<svg
   width="93.159576mm"
   height="51.289894mm"
   viewBox="0 0 93.159576 51.289894"
   version="1.1"
   id="svg1"
   xmlns="http://www.w3.org/2000/svg"
   xmlns:svg="http://www.w3.org/2000/svg">
  <defs
     id="defs1" />
  <g
     id="layer1"
     transform="translate(-61.047675,-112.51201)">
    <path
       id="rect4-8"
       style="fill:#006aff;fill-opacity:1;stroke:#f9f9f9;stroke-width:0.111672"
       d="m 107.62749,112.56785 c 5.90937,0 10.66669,4.75732 10.66669,10.66669 0,5.90937 -4.75732,10.66674 -10.66669,10.66674 -5.90936,0 -10.666735,-4.75737 -10.666735,-10.66674 0,-5.90937 4.757375,-10.66669 10.666735,-10.66669 z" />
    <path
       fill="none"
       stroke="currentColor"
       stroke-linecap="round"
       stroke-linejoin="round"
       d="m 107.69117,119.47756 c 1.07877,0 1.92314,-0.005 1.92314,-0.005 0,0 0.86598,-1.49022 2.95213,-2.90938 0,0 -0.44019,4.12991 0.97949,7.91943 0,0 -3.68846,2.78355 -5.90253,5.42356 -2.21412,-2.63969 -5.9344,-5.42356 -5.9344,-5.42356 1.41948,-3.78952 0.97943,-7.91943 0.97943,-7.91943 2.0862,1.41916 2.95217,2.90938 2.95217,2.90938 0,0 1.00364,0.005 2.0824,0.005"
       stroke-width="0.321444"
       id="path1-2"
       style="fill:#f9f9f9;fill-opacity:1;stroke:none;stroke-opacity:1" />
    <g
       id="g3"
       transform="matrix(0.68511694,0,0,0.68511694,-7.8879108,-122.62802)">
      <g
         id="text1"
         style="font-size:12.976px;font-family:Arial;-inkscape-font-specification:Arial;fill:#006aff;stroke-width:1.08133"
         aria-label="RESTFOX"
         transform="translate(18.332174)">
        <path
           style="font-family:Abres;-inkscape-font-specification:Abres"
           d="m 105.05328,397.23767 v -2.55627 q 0,-0.7007 0.23357,-1.20677 0.24655,-0.51904 0.67475,-0.80451 0.44119,-0.29845 0.98618,-0.42821 0.54499,-0.12976 1.21974,-0.11678 h 1.40141 3.94471 q 1.12891,0 1.12891,-1.07701 v -0.84344 q 0,-1.07701 -1.12891,-1.07701 h -6.24146 v 1.73879 h -2.2189 v -3.36079 h 9.16106 q 2.62115,0 2.62115,2.37461 v 1.2976 q 0,2.2708 -2.40056,2.37461 l 2.8677,3.59435 v 0.0908 h -2.45247 l -2.90662,-3.68518 h -2.81579 q -0.31143,0 -0.57095,0.0389 -0.24654,0.0259 -0.4282,0.0778 -0.18167,0.0389 -0.3244,0.12976 -0.14274,0.0908 -0.23357,0.16869 -0.0908,0.0779 -0.15571,0.22059 -0.0649,0.14274 -0.10381,0.23357 -0.0259,0.0908 -0.0389,0.2725 -0.013,0.18166 -0.013,0.28547 0,0.0908 0,0.29845 0.013,0.20761 0.013,0.29845 v 1.66092 z m 13.3523,0 v -2.55627 q 0,-0.7007 0.23357,-1.20677 0.24654,-0.51904 0.67475,-0.80451 0.44118,-0.29845 0.98617,-0.42821 0.545,-0.12976 1.23272,-0.11678 h 1.38844 4.72326 v 1.42736 h -0.40226 -0.44118 -4.32101 q -0.31142,0 -0.55797,0.0389 -0.24654,0.0259 -0.44118,0.0778 -0.18166,0.0389 -0.3244,0.12976 -0.14274,0.0908 -0.23357,0.16869 -0.0908,0.0779 -0.15571,0.22059 -0.0649,0.14274 -0.10381,0.23357 -0.0259,0.0908 -0.0389,0.2725 -0.013,0.18166 -0.013,0.28547 0,0.0908 0,0.29845 0.013,0.20761 0.013,0.29845 h 9.00535 v 1.66092 h -9.00535 -0.44118 z m 11.22424,-9.732 v 1.68688 q -0.22059,-0.0649 -0.49309,-0.0649 h -8.51226 v 1.73879 h -2.21889 v -3.36079 z m 3.26994,2.47842 v 1.0251 h 1.8426 1.92044 2.66008 q 2.67306,0 2.67306,2.36164 v 1.49224 q 0,2.3746 -2.67306,2.3746 h -8.57713 v -1.66092 h 7.87643 q 1.18082,0 1.18082,-1.06404 v -1.01212 q 0,-1.07701 -1.18082,-1.07701 h -3.21805 -0.66177 -4.02256 v -0.0519 -0.28547 -1.98533 0.013 -0.6488 q 0,-1.95938 2.34865,-1.95938 h 8.56416 v 1.66093 h -7.86345 q -0.8694,0 -0.8694,0.63583 v 0.31142 0.67475 z m 17.38783,7.25358 h -2.23187 v -8.07107 h -4.96981 v -1.66093 h 12.18446 v 1.66093 h -4.98278 z"
           id="path1" />
        <path
           style="font-family:Abres;-inkscape-font-specification:Abres;fill:#1a1a1a"
           d="m 156.36037,397.23767 v -2.55627 q 0,-0.7007 0.23356,-1.20677 0.24655,-0.51904 0.67476,-0.80451 0.44118,-0.29845 0.98617,-0.42821 0.54499,-0.12976 1.23272,-0.11678 h 1.38843 4.72327 v 1.42736 h -0.40226 -0.44118 -4.32101 q -0.31142,0 -0.57094,0.0389 -0.24655,0.0259 -0.42821,0.0778 -0.18167,0.0389 -0.3244,0.12976 -0.14274,0.0908 -0.23357,0.16869 -0.0908,0.0779 -0.15571,0.22059 -0.0649,0.14274 -0.10381,0.23357 -0.0259,0.0908 -0.0389,0.2725 -0.013,0.18166 -0.013,0.28547 0,0.0908 0,0.29845 0.013,0.20761 0.013,0.29845 v 1.66092 z m 11.22424,-9.732 v 1.68688 q -0.2206,-0.0649 -0.49309,-0.0649 h -8.51226 v 1.73879 h -2.21889 v -3.36079 z m 9.57628,1.66093 h -5.1385 q -1.12891,0 -1.12891,1.06403 v 4.28208 q 0,1.06404 1.12891,1.06404 h 5.1385 q 1.12891,0 1.12891,-1.06404 v -4.28208 q 0,-1.06403 -1.12891,-1.06403 z m 0.72665,8.07107 h -6.5918 q -2.62116,0 -2.62116,-2.3746 v -4.98279 q 0,-2.37461 2.62116,-2.37461 h 6.5918 q 2.62116,0 2.62116,2.37461 v 4.98279 q 0,2.3746 -2.62116,2.3746 z m 17.34892,-9.69307 -5.46289,4.67136 5.72241,4.90493 v 0.0389 h -2.5952 l -4.39886,-3.81495 -4.34696,3.81495 h -2.55627 v -0.0389 l 5.59265,-4.8141 -5.57968,-4.76219 v -0.0389 h 2.5952 l 4.26911,3.68519 4.19124,-3.68519 h 2.56925 z"
           id="path2" />
      </g>
      <g
         id="g5"
         transform="matrix(1.2612488,0,0,1.2612488,-26.286519,-105.79233)">
        <path
           id="rect2"
           style="fill:#f9f9f9;stroke-width:2.83449"
           d="m 105.82226,404.94861 h 97.40366 c 2.88277,0 5.20354,2.32078 5.20354,5.20353 0,2.88276 -2.32077,5.20353 -5.20354,5.20353 h -97.40366 c -2.88276,0 -5.20354,-2.32077 -5.20354,-5.20353 0,-2.88275 2.32078,-5.20353 5.20354,-5.20353 z" />
        <g
           id="g4"
           transform="translate(0.15605,0.43110122)">
          <path
             style="font-size:3.66135px;font-family:Abres;-inkscape-font-specification:Abres;fill:#333333;stroke-width:0.305113"
             d="m 111.02681,411.00251 v -0.72129 q 0,-0.19771 0.0659,-0.3405 0.0696,-0.14646 0.19039,-0.22701 0.12449,-0.0842 0.27827,-0.12082 0.15377,-0.0366 0.34416,-0.033 h 0.39543 1.11305 q 0.31854,0 0.31854,-0.30389 v -0.23799 q 0,-0.30389 -0.31854,-0.30389 h -1.76111 v 0.49062 h -0.62609 v -0.94829 h 2.58491 q 0.7396,0 0.7396,0.67002 v 0.36614 q 0,0.64074 -0.67735,0.67003 l 0.80915,1.01419 v 0.0256 h -0.69199 l -0.82014,-1.03982 h -0.79452 q -0.0879,0 -0.1611,0.011 -0.0696,0.007 -0.12082,0.022 -0.0513,0.011 -0.0915,0.0366 -0.0403,0.0256 -0.0659,0.0476 -0.0256,0.022 -0.0439,0.0622 -0.0183,0.0403 -0.0293,0.0659 -0.007,0.0256 -0.011,0.0769 -0.004,0.0512 -0.004,0.0805 0,0.0256 0,0.0842 0.004,0.0586 0.004,0.0842 v 0.46865 z m 3.76753,0 v -0.72129 q 0,-0.19771 0.0659,-0.3405 0.0696,-0.14646 0.19039,-0.22701 0.12449,-0.0842 0.27826,-0.12082 0.15378,-0.0366 0.34783,-0.033 h 0.39177 1.33273 v 0.40275 h -0.1135 -0.12449 -1.21923 q -0.0879,0 -0.15744,0.011 -0.0696,0.007 -0.12448,0.022 -0.0513,0.011 -0.0915,0.0366 -0.0403,0.0256 -0.0659,0.0476 -0.0256,0.022 -0.0439,0.0622 -0.0183,0.0403 -0.0293,0.0659 -0.007,0.0256 -0.011,0.0769 -0.004,0.0512 -0.004,0.0805 0,0.0256 0,0.0842 0.004,0.0586 0.004,0.0842 h 2.54097 v 0.46865 h -2.54097 -0.12449 z m 3.16706,-2.74601 v 0.47597 q -0.0622,-0.0183 -0.13913,-0.0183 h -2.40184 v 0.49062 h -0.62609 v -0.94829 z m 0.91534,0 q 0.19039,0 0.25996,0.13181 l 1.35836,2.08697 1.35836,-2.08697 q 0.0769,-0.13181 0.25995,-0.13181 h 0.27094 q 0.34051,0 0.34051,0.3222 v 2.42381 h -0.56019 v -2.05768 l -1.26683,1.92587 q -0.0806,0.13181 -0.23798,0.13181 h -0.32586 q -0.15378,0 -0.24165,-0.13181 l -1.26317,-1.92221 v 2.05402 h -0.56018 v -2.42381 q 0,-0.3222 0.33684,-0.3222 z m 6.55016,0.46865 h -1.4499 q -0.31854,0 -0.31854,0.30023 v 1.20825 q 0,0.30023 0.31854,0.30023 h 1.4499 q 0.31853,0 0.31853,-0.30023 v -1.20825 q 0,-0.30023 -0.31853,-0.30023 z m 0.20503,2.27736 h -1.85996 q -0.7396,0 -0.7396,-0.67003 v -1.40596 q 0,-0.67002 0.7396,-0.67002 h 1.85996 q 0.73959,0 0.73959,0.67002 v 1.40596 q 0,0.67003 -0.73959,0.67003 z m 3.0792,0 h -0.62975 v -2.27736 h -1.4023 v -0.46865 h 3.43801 v 0.46865 h -1.40596 z m 1.71351,0 v -0.72129 q 0,-0.19771 0.0659,-0.3405 0.0696,-0.14646 0.19039,-0.22701 0.12448,-0.0842 0.27826,-0.12082 0.15378,-0.0366 0.34783,-0.033 h 0.39176 1.33273 v 0.40275 h -0.1135 -0.12448 -1.21923 q -0.0879,0 -0.15744,0.011 -0.0696,0.007 -0.12449,0.022 -0.0513,0.011 -0.0915,0.0366 -0.0403,0.0256 -0.0659,0.0476 -0.0256,0.022 -0.0439,0.0622 -0.0183,0.0403 -0.0293,0.0659 -0.007,0.0256 -0.011,0.0769 -0.004,0.0512 -0.004,0.0805 0,0.0256 0,0.0842 0.004,0.0586 0.004,0.0842 h 2.54098 v 0.46865 h -2.54098 -0.12448 z m 3.16707,-2.74601 v 0.47597 q -0.0622,-0.0183 -0.13913,-0.0183 h -2.40185 v 0.49062 h -0.62609 v -0.94829 z m 2.78994,2.74601 h -0.27094 q -0.33684,0 -0.33684,-0.3222 v -2.42381 h 0.56019 v 2.05401 l 1.26316,-1.11671 q 0.007,-0.004 0.0329,-0.0256 0.0256,-0.0256 0.033,-0.0293 0.007,-0.007 0.0293,-0.022 0.022,-0.0183 0.0329,-0.022 0.011,-0.007 0.0293,-0.0146 0.022,-0.011 0.0403,-0.0146 0.022,-0.004 0.0439,-0.004 h 0.32586 q 0.022,0 0.0403,0.004 0.0183,0.004 0.0366,0.0146 0.022,0.007 0.0329,0.0146 0.0146,0.004 0.0329,0.022 0.022,0.0146 0.0293,0.022 0.007,0.007 0.0329,0.0293 0.0256,0.022 0.0329,0.0256 l 1.26683,1.12038 v -2.05768 h 0.56018 v 2.42381 q 0,0.3222 -0.3405,0.3222 h -0.27094 q -0.0805,0 -0.13913,-0.0329 -0.0549,-0.033 -0.12083,-0.0989 l -1.35836,-1.33273 -1.35836,1.33273 q -0.0439,0.0439 -0.0732,0.0696 -0.0293,0.022 -0.0805,0.0439 -0.0476,0.0183 -0.10618,0.0183 z m 6.55016,-2.27736 h -1.44989 q -0.31854,0 -0.31854,0.30023 v 1.20825 q 0,0.30023 0.31854,0.30023 h 1.44989 q 0.31854,0 0.31854,-0.30023 v -1.20825 q 0,-0.30023 -0.31854,-0.30023 z m 0.20504,2.27736 h -1.85997 q -0.73959,0 -0.73959,-0.67003 v -1.40596 q 0,-0.67002 0.73959,-0.67002 h 1.85997 q 0.73959,0 0.73959,0.67002 v 1.40596 q 0,0.67003 -0.73959,0.67003 z m 1.04714,0 v -0.72129 q 0,-0.19771 0.0659,-0.3405 0.0696,-0.14646 0.19039,-0.22701 0.12448,-0.0842 0.27826,-0.12082 0.15378,-0.0366 0.34417,-0.033 h 0.39542 1.11305 q 0.31854,0 0.31854,-0.30389 v -0.23799 q 0,-0.30389 -0.31854,-0.30389 h -1.7611 v 0.49062 h -0.6261 v -0.94829 h 2.58492 q 0.73959,0 0.73959,0.67002 v 0.36614 q 0,0.64074 -0.67735,0.67003 l 0.80916,1.01419 v 0.0256 h -0.692 l -0.82014,-1.03982 h -0.79451 q -0.0879,0 -0.1611,0.011 -0.0696,0.007 -0.12083,0.022 -0.0512,0.011 -0.0915,0.0366 -0.0403,0.0256 -0.0659,0.0476 -0.0256,0.022 -0.0439,0.0622 -0.0183,0.0403 -0.0293,0.0659 -0.007,0.0256 -0.011,0.0769 -0.004,0.0512 -0.004,0.0805 0,0.0256 0,0.0842 0.004,0.0586 0.004,0.0842 v 0.46865 z m 6.48425,-0.76888 v -1.20825 q 0,-0.30023 -0.31487,-0.30023 h -1.77576 v 1.80871 h 1.77576 q 0.31487,0 0.31487,-0.30023 z m -2.71672,0.76888 v -2.74601 h 2.60688 q 0.7396,0 0.7396,0.67002 v 1.40596 q 0,0.67003 -0.7396,0.67003 z m 3.65403,0 v -0.72129 q 0,-0.19771 0.0659,-0.3405 0.0696,-0.14646 0.19039,-0.22701 0.12449,-0.0842 0.27826,-0.12082 0.15378,-0.0366 0.34417,-0.033 h 0.39542 1.11306 q 0.31853,0 0.31853,-0.30389 v -0.23799 q 0,-0.30389 -0.31853,-0.30389 h -1.76111 v 0.49062 h -0.62609 v -0.94829 h 2.58491 q 0.73959,0 0.73959,0.67002 v 0.36614 q 0,0.64074 -0.67735,0.67003 h -0.70298 -0.12448 -0.67003 q -0.0879,0 -0.1611,0.011 -0.0696,0.007 -0.12083,0.022 -0.0512,0.011 -0.0915,0.0366 -0.0403,0.0256 -0.0659,0.0476 -0.0256,0.022 -0.0439,0.0622 -0.0183,0.0403 -0.0293,0.0659 -0.007,0.0256 -0.011,0.0769 -0.004,0.0512 -0.004,0.0805 0,0.0256 0,0.0842 0.004,0.0586 0.004,0.0842 v 0.46865 z m 3.63206,0 v -0.72129 q 0,-0.19771 0.0659,-0.3405 0.0696,-0.14646 0.19039,-0.22701 0.12449,-0.0842 0.27826,-0.12082 0.15378,-0.0366 0.34417,-0.033 h 0.39543 1.11305 q 0.31853,0 0.31853,-0.30389 v -0.23799 q 0,-0.30389 -0.31853,-0.30389 h -1.76111 v 0.49062 h -0.62609 v -0.94829 h 2.58491 q 0.73959,0 0.73959,0.67002 v 0.36614 q 0,0.64074 -0.67735,0.67003 l 0.80916,1.01419 v 0.0256 h -0.69199 l -0.82015,-1.03982 h -0.79451 q -0.0879,0 -0.1611,0.011 -0.0696,0.007 -0.12082,0.022 -0.0513,0.011 -0.0915,0.0366 -0.0403,0.0256 -0.0659,0.0476 -0.0256,0.022 -0.0439,0.0622 -0.0183,0.0403 -0.0293,0.0659 -0.007,0.0256 -0.011,0.0769 -0.004,0.0512 -0.004,0.0805 0,0.0256 0,0.0842 0.004,0.0586 0.004,0.0842 v 0.46865 z m 3.76752,0 v -0.72129 q 0,-0.19771 0.0659,-0.3405 0.0696,-0.14646 0.19039,-0.22701 0.12448,-0.0842 0.27826,-0.12082 0.15378,-0.0366 0.34783,-0.033 h 0.39176 1.33274 v 0.40275 h -0.11351 -0.12448 -1.21923 q -0.0879,0 -0.15744,0.011 -0.0696,0.007 -0.12449,0.022 -0.0513,0.011 -0.0915,0.0366 -0.0403,0.0256 -0.0659,0.0476 -0.0256,0.022 -0.0439,0.0622 -0.0183,0.0403 -0.0293,0.0659 -0.007,0.0256 -0.011,0.0769 -0.004,0.0512 -0.004,0.0805 0,0.0256 0,0.0842 0.004,0.0586 0.004,0.0842 h 2.54097 v 0.46865 h -2.54097 -0.12449 z m 3.16707,-2.74601 v 0.47597 q -0.0622,-0.0183 -0.13913,-0.0183 h -2.40184 v 0.49062 h -0.6261 v -0.94829 z m 0.92266,0.69932 v 0.28924 h 0.51991 0.54188 0.75058 q 0.75423,0 0.75423,0.66637 v 0.42105 q 0,0.67003 -0.75423,0.67003 h -2.42016 v -0.46865 h 2.22244 q 0.33319,0 0.33319,-0.30023 v -0.28559 q 0,-0.30389 -0.33319,-0.30389 h -0.90801 -0.18673 -1.13502 v -0.0147 -0.0806 -0.56018 0.004 -0.18307 q 0,-0.55286 0.66271,-0.55286 h 2.41649 v 0.46865 h -2.21878 q -0.24531,0 -0.24531,0.17941 v 0.0879 0.19039 z m 3.48926,0 v 0.28924 h 0.51992 0.54188 0.75057 q 0.75424,0 0.75424,0.66637 v 0.42105 q 0,0.67003 -0.75424,0.67003 h -2.42015 v -0.46865 h 2.22244 q 0.33318,0 0.33318,-0.30023 v -0.28559 q 0,-0.30389 -0.33318,-0.30389 h -0.90802 -0.18672 -1.13502 v -0.0147 -0.0806 -0.56018 0.004 -0.18307 q 0,-0.55286 0.6627,-0.55286 h 2.41649 v 0.46865 h -2.21878 q -0.24531,0 -0.24531,0.17941 v 0.0879 0.19039 z m 5.35655,-0.69932 q 0.19039,0 0.25996,0.13181 l 1.35836,2.08697 1.35836,-2.08697 q 0.0769,-0.13181 0.25995,-0.13181 h 0.27094 q 0.34051,0 0.34051,0.3222 v 2.42381 h -0.56019 v -2.05768 l -1.26682,1.92587 q -0.0805,0.13181 -0.23799,0.13181 h -0.32586 q -0.15378,0 -0.24165,-0.13181 l -1.26317,-1.92221 v 2.05402 h -0.56018 v -2.42381 q 0,-0.3222 0.33684,-0.3222 z m 4.81834,0 h 2.02107 q 0.66636,0 0.66636,0.59314 v 2.15287 h -0.62609 v -0.81282 -0.1135 -0.0256 h -1.146 l -0.95195,0.95195 h -0.62609 v -2.15287 q 0,-0.59314 0.6627,-0.59314 z m -0.0366,2.08331 0.28924,-0.28925 0.46866,-0.47232 h 0.6627 0.67735 v -0.0622 -0.52357 q 0,-0.26728 -0.28925,-0.26728 h -1.52312 q -0.28558,0 -0.28558,0.26728 v 0.52357 0.1611 0.39909 0.1135 z m 3.58812,-2.08331 v 2.26271 l 2.0467,-2.1309 q 0.10618,-0.13181 0.29657,-0.13181 h 0.31121 q 0.33685,0 0.33685,0.3222 v 2.42381 h -0.55653 v -2.25539 l -2.04669,2.12358 q -0.10252,0.13181 -0.29657,0.13181 h -0.31122 q -0.33684,0 -0.33684,-0.3222 v -2.42381 z m 3.96524,0 h 2.02107 q 0.66637,0 0.66637,0.59314 v 2.15287 h -0.6261 v -0.81282 -0.1135 -0.0256 h -1.146 l -0.95195,0.95195 h -0.62609 v -2.15287 q 0,-0.59314 0.6627,-0.59314 z m -0.0366,2.08331 0.28925,-0.28925 0.46865,-0.47232 h 0.6627 0.67735 v -0.0622 -0.52357 q 0,-0.26728 -0.28924,-0.26728 h -1.52312 q -0.28559,0 -0.28559,0.26728 v 0.52357 0.1611 0.39909 0.1135 z m 6.2243,0.6627 h -2.52633 q -0.66637,0 -0.66637,-0.59314 v -1.55973 q 0,-0.59314 0.66637,-0.59314 h 2.50802 v 0.46865 h -2.25905 q -0.28925,0 -0.28925,0.26728 v 1.27415 q 0,0.26728 0.28925,0.26728 h 1.69887 v -0.20504 -0.50526 -0.17941 h -0.20504 -0.10618 -0.76156 -0.39543 v -0.39909 h 0.39543 1.16065 0.49062 v 0.39909 0.011 z m 0.31122,0 v -0.72129 q 0,-0.19771 0.0659,-0.3405 0.0696,-0.14646 0.19039,-0.22701 0.12449,-0.0842 0.27826,-0.12082 0.15378,-0.0366 0.34783,-0.033 h 0.39177 1.33273 v 0.40275 h -0.1135 -0.12449 -1.21923 q -0.0879,0 -0.15744,0.011 -0.0696,0.007 -0.12448,0.022 -0.0513,0.011 -0.0915,0.0366 -0.0403,0.0256 -0.0659,0.0476 -0.0256,0.022 -0.0439,0.0622 -0.0183,0.0403 -0.0293,0.0659 -0.007,0.0256 -0.011,0.0769 -0.004,0.0512 -0.004,0.0805 0,0.0256 0,0.0842 0.004,0.0586 0.004,0.0842 h 2.54097 v 0.46865 h -2.54097 -0.12449 z m 3.16706,-2.74601 v 0.47597 q -0.0622,-0.0183 -0.13913,-0.0183 h -2.40184 v 0.49062 h -0.62609 v -0.94829 z m 0.30755,2.74601 v -0.72129 q 0,-0.19771 0.0659,-0.3405 0.0696,-0.14646 0.19039,-0.22701 0.12448,-0.0842 0.27826,-0.12082 0.15378,-0.0366 0.34417,-0.033 h 0.39542 1.11305 q 0.31854,0 0.31854,-0.30389 v -0.23799 q 0,-0.30389 -0.31854,-0.30389 h -1.76111 v 0.49062 h -0.62609 v -0.94829 h 2.58492 q 0.73959,0 0.73959,0.67002 v 0.36614 q 0,0.64074 -0.67735,0.67003 l 0.80916,1.01419 v 0.0256 h -0.692 l -0.82014,-1.03982 h -0.79451 q -0.0879,0 -0.1611,0.011 -0.0696,0.007 -0.12083,0.022 -0.0513,0.011 -0.0915,0.0366 -0.0403,0.0256 -0.0659,0.0476 -0.0256,0.022 -0.0439,0.0622 -0.0183,0.0403 -0.0293,0.0659 -0.007,0.0256 -0.011,0.0769 -0.004,0.0512 -0.004,0.0805 0,0.0256 0,0.0842 0.004,0.0586 0.004,0.0842 v 0.46865 z"
             id="text2"
             aria-label="remote wordpress manager" />
          <path
             id="path3"
             style="fill:#006aff;stroke-width:0.386187"
             d="m 108.74519,409.72104 a 0.85720861,0.85720861 0 0 1 -0.85721,0.85721 0.85720861,0.85720861 0 0 1 -0.85721,-0.85721 0.85720861,0.85720861 0 0 1 0.85721,-0.85721 0.85720861,0.85720861 0 0 1 0.85721,0.85721 z" />
          <path
             id="path3-5"
             style="fill:#006aff;stroke-width:0.386187"
             d="m 201.70531,409.72104 a 0.85720861,0.85720861 0 0 1 -0.85721,0.85721 0.85720861,0.85720861 0 0 1 -0.85721,-0.85721 0.85720861,0.85720861 0 0 1 0.85721,-0.85721 0.85720861,0.85720861 0 0 1 0.85721,0.85721 z" />
        </g>
      </g>
    </g>
  </g>
</svg>
